<svg xmlns="http://www.w3.org/2000/svg" width="920" height="360" viewBox="0 0 920 360" role="img" aria-labelledby="t d">
  <title id="t">15-minute reseller reset</title>
  <desc id="d">A practical weekly routine to stay on top of inventory and margin</desc>
  <defs>
    <linearGradient id="panel" x1="0" y1="0" x2="1" y2="1">
      <stop offset="0%" stop-color="#F6F5F1" />
      <stop offset="100%" stop-color="#FFFFFF" />
    </linearGradient>
    <linearGradient id="accent" x1="0" y1="0" x2="1" y2="0">
      <stop offset="0%" stop-color="#0A5E36" />
      <stop offset="100%" stop-color="#0F7C48" />
    </linearGradient>
    <filter id="shadow" x="-20%" y="-20%" width="140%" height="140%">
      <feDropShadow dx="0" dy="10" stdDeviation="12" flood-color="#162130" flood-opacity="0.12"/>
    </filter>
  </defs>

  <rect x="0" y="0" width="920" height="360" rx="26" fill="#ECE8DE" />
  <g filter="url(#shadow)">
    <rect x="20" y="20" width="880" height="320" rx="26" fill="url(#panel)" stroke="#EAE2D2" />
    <rect x="20" y="20" width="880" height="88" rx="26" fill="url(#accent)"/>
    <image href="/images/app-icon.png" x="38" y="40" width="28" height="28" preserveAspectRatio="xMidYMid slice"/>
    <text x="84" y="55" fill="#ffffff" font-family="system-ui, -apple-system, Segoe UI, sans-serif" font-size="14" font-weight="700">Weekly Checklist</text>
    <text x="38" y="87" fill="#ffffff" font-family="system-ui, -apple-system, Segoe UI, sans-serif" font-size="22" font-weight="800">15-minute reseller reset</text>
    <text x="38" y="130" fill="#697386" font-family="system-ui, -apple-system, Segoe UI, sans-serif" font-size="13">A practical weekly routine to stay on top of inventory and margin</text>

    <g transform="translate(38,154)">
      <rect x="0" y="0" width="844" height="150" rx="22" fill="#FFFFFF" stroke="#EAE2D2"/>
      <circle cx="18" cy="24" r="8" fill="#ECE8DE" stroke="#E2D6BF"/><path d="M14 24 l3 3 5 -6" fill="none" stroke="#0F7C48" stroke-width="2" stroke-linecap="round" stroke-linejoin="round"/><text x="36" y="29" fill="#1F2A37" font-family="system-ui, -apple-system, Segoe UI, sans-serif" font-size="14" font-weight="600">Review stale listings</text><line x1="0" y1="42" x2="620" y2="42" stroke="#EAE2D2" /><circle cx="18" cy="58" r="8" fill="#ECE8DE" stroke="#E2D6BF"/><path d="M14 58 l3 3 5 -6" fill="none" stroke="#0F7C48" stroke-width="2" stroke-linecap="round" stroke-linejoin="round"/><text x="36" y="63" fill="#1F2A37" font-family="system-ui, -apple-system, Segoe UI, sans-serif" font-size="14" font-weight="600">Check recent sold margins</text><line x1="0" y1="76" x2="620" y2="76" stroke="#EAE2D2" /><circle cx="18" cy="92" r="8" fill="#ECE8DE" stroke="#E2D6BF"/><path d="M14 92 l3 3 5 -6" fill="none" stroke="#0F7C48" stroke-width="2" stroke-linecap="round" stroke-linejoin="round"/><text x="36" y="97" fill="#1F2A37" font-family="system-ui, -apple-system, Segoe UI, sans-serif" font-size="14" font-weight="600">Reprice slow movers</text><line x1="0" y1="110" x2="620" y2="110" stroke="#EAE2D2" /><circle cx="18" cy="126" r="8" fill="#ECE8DE" stroke="#E2D6BF"/><path d="M14 126 l3 3 5 -6" fill="none" stroke="#0F7C48" stroke-width="2" stroke-linecap="round" stroke-linejoin="round"/><text x="36" y="131" fill="#1F2A37" font-family="system-ui, -apple-system, Segoe UI, sans-serif" font-size="14" font-weight="600">Log weekly snapshot</text>
    </g>
  </g>
</svg>
